<svg height="512" viewBox="0 0 60 60" width="512" xmlns="http://www.w3.org/2000/svg"><g id="Page-1" fill="none" fill-rule="evenodd"><g id="013---Tweet" fill-rule="nonzero"><path id="Shape" d="m45.586 29.607-5.347 4.834c-.3140989 1.6512011-1.0993543 3.1762151-2.261 4.391v.012c-1.825 21.7-22.457 20.918-31.19 19.6-.5238657-.0964843-.92989355-.5129231-1.01308664-1.0390632s.17454506-1.0475334.64308664-1.3009368c7.063-3.689 9.8-8.4 9.8-8.4-9.411-.004-13.693-8.237-15.128-11.921-.15571942-.3864237-.11679951-.8240703.10466623-1.1769509.22146575-.3528806.59864351-.5782387 1.01433377-.6060491h21.36c-.0603481-.3299835-.0921325-.6645558-.095-1-.1616954-3.7382566 2.0849607-7.1611956 5.579-8.5 3.1380991-1.1393193 6.6532292-.2991808 8.937 2.136l6.933.8c.4796242.0714341.8753872.4123798 1.0170177.8761503.1416305.4637704.0038678.9676491-.3540177 1.2948497z" fill="#02a9f4"/><path id="Shape" d="m44.923 27.429-6.933-.8c-1.9462998-2.078751-4.8214799-3.0161375-7.619-2.484 1.7660161.3117934 3.3851976 1.1825548 4.619 2.484l6.933.8c.4828039.0692744.8819494.4115927 1.0239887.8782011.1420392.4666085.0013276.9732634-.3609887 1.2997989l-5.347 4.834c-.3140989 1.6512011-1.0993543 3.1762151-2.261 4.391v.012c-1.35 16.048-12.985 19.8-22.487 20.127 9.858.34 23.991-2.339 25.487-20.127v-.012c1.1616457-1.2147849 1.9469011-2.7397989 2.261-4.391l5.347-4.834c.3623163-.3265355.5030279-.8331904.3609887-1.2997989-.1420393-.4666084-.5411848-.8089267-1.0239887-.8782011z" fill="#0377bc"/><path id="Shape" d="m59 4v13c0 1.6568542-1.3431458 3-3 3h-1.44l-3.1 6.973c-.080201.1806782-.2593215.2971429-.457.2971429s-.376799-.1164647-.457-.2971429l-3.106-6.973h-43.44c-1.65685425 0-3-1.3431458-3-3v-13c0-1.65685425 1.34314575-3 3-3h52c1.6568542 0 3 1.34314575 3 3z" fill="#f5f5f5"/><path id="Shape" d="m56 1h-3c1.6568542 0 3 1.34314575 3 3v13c0 1.6568542-1.3431458 3-3 3h-1.44l-2.06 4.629 1.043 2.344c.080201.1806782.2593215.2971429.457.2971429s.376799-.1164647.457-.2971429l3.103-6.973h1.44c1.6568542 0 3-1.3431458 3-3v-13c0-1.65685425-1.3431458-3-3-3z" fill="#cfd8dc"/><circle id="Oval" cx="51" cy="13" fill="#e91e63" r="3"/><g fill="#000"><path id="Shape" d="m45.038 26.435-6.583-.756c-2.5664427-2.5174121-6.3472281-3.3439004-9.73-2.127-3.9081451 1.4654435-6.4306176 5.2780047-6.251 9.448h-20.266c-.72104481.0061075-1.39251309.3680416-1.794.967-.44046553.6392907-.5363027 1.4550298-.256 2.179 1.376 3.531 5.408 11.439 14.173 12.448-2.323529 2.7419295-5.17120833 4.9922625-8.376 6.619-.86769192.4477967-1.3400329 1.410755-1.163 2.371.14173894.9543055.89154142 1.7032956 1.846 1.844 2.44444506.3732478 4.9132347.5644403 7.386.572 5.6 0 12.192-1.062 17.231-5.04 4.436-3.5 7.019-8.751 7.684-15.695 1.0883637-1.2235766 1.849024-2.702925 2.211-4.3l5.107-4.616c.6653322-.596126.913918-1.5299916.633-2.378-.2578613-.8341279-.9845729-1.4368434-1.852-1.536zm-.122 2.43-5.348 4.835c-.160944.1456891-.270107.3397957-.311.553-.2769823 1.4620257-.9716584 2.812476-2 3.888-.1584402.1700861-.2552686.3883899-.275.62-.545 6.49-2.889 11.412-6.965 14.63-6.989 5.516-17.46 4.909-23.079 4.059-.09888962-.0155354-.17229725-.099912-.174-.2-.02823038-.1059592.02024186-.2174039.117-.269 7.236-3.78 10.084-8.58 10.2-8.782.178453-.3090879.1786463-.6898553.0005074-.9991243-.1781389-.3092689-.5076037-.5001532-.8645074-.5008757-8.847 0-12.876-7.889-14.2-11.281-.03822182-.1087986-.02185267-.229335.044-.324.02850562-.0546598.08187731-.0919826.143-.1h21.365c.2965701.0000448.5778611-.1315504.7678916-.3592393.1900305-.227689.2691945-.5279804.2161084-.8197607-.0508797-.2768097-.0773149-.5575581-.079-.839-.1694547-3.3106359 1.8107051-6.3543346 4.906-7.541 2.7674912-.9999362 5.8645053-.2622152 7.884 1.878.1616718.1707902.3783648.2791366.612.306l6.933.8c.0866415.0106554.1571599.0747631.176.16.0386338.1004113.011169.2142509-.069.286z"/><path id="Shape" d="m56 0h-52c-2.209139 0-4 1.790861-4 4v13c0 2.209139 1.790861 4 4 4h42.791l2.838 6.381c.240603.5420345.7779644.8914287 1.371.8914287s1.130397-.3493942 1.371-.8914287l2.838-6.381h.791c2.209139 0 4-1.790861 4-4v-13c0-2.209139-1.790861-4-4-4zm2 17c0 1.1045695-.8954305 2-2 2h-1.44c-.3950541-.0002259-.753213.2321464-.914.593l-2.646 5.948-2.646-5.948c-.160787-.3608536-.5189459-.5932259-.914-.593h-43.44c-1.1045695 0-2-.8954305-2-2v-13c0-1.1045695.8954305-2 2-2h52c1.1045695 0 2 .8954305 2 2z"/><path id="Shape" d="m26 36c-.5522847 0-1 .4477153-1 1 0 .064-.071 6.478-4.515 9.144-.3132279.1806127-.5045637.516242-.5004101.8777878.0041537.3615459.2031497.6926908.5204443.8660598.3172946.1733689.7034632.1619565 1.0099658-.0298476 5.423-3.258 5.485-10.549 5.485-10.858 0-.5522847-.4477153-1-1-1z"/><path id="Shape" d="m7 7h4c.5522847 0 1-.44771525 1-1s-.4477153-1-1-1h-4c-.55228475 0-1 .44771525-1 1s.44771525 1 1 1z"/><path id="Shape" d="m15 7h13c.5522847 0 1-.44771525 1-1s-.4477153-1-1-1h-13c-.5522847 0-1 .44771525-1 1s.4477153 1 1 1z"/><path id="Shape" d="m44 5h-12c-.5522847 0-1 .44771525-1 1s.4477153 1 1 1h12c.5522847 0 1-.44771525 1-1s-.4477153-1-1-1z"/><path id="Shape" d="m18 10h-11c-.55228475 0-1 .4477153-1 1s.44771525 1 1 1h11c.5522847 0 1-.4477153 1-1s-.4477153-1-1-1z"/><path id="Shape" d="m37 10h-14c-.5522847 0-1 .4477153-1 1s.4477153 1 1 1h14c.5522847 0 1-.4477153 1-1s-.4477153-1-1-1z"/><path id="Shape" d="m51 9c-2.209139 0-4 1.790861-4 4s1.790861 4 4 4 4-1.790861 4-4c0-1.060866-.4214274-2.0782816-1.1715729-2.8284271-.7501455-.75014554-1.7675611-1.1715729-2.8284271-1.1715729zm0 6c-1.1045695 0-2-.8954305-2-2s.8954305-2 2-2 2 .8954305 2 2-.8954305 2-2 2z"/></g></g></g></svg>