<svg id="Capa_1" enable-background="new 0 0 511.996 511.996" height="512" viewBox="0 0 511.996 511.996" width="512" xmlns="http://www.w3.org/2000/svg"><g><path d="m223.907 171.93c3.302 0 6.328-2.198 7.234-5.538 3.367-12.407 14.23-16.793 22.593-16.793.06 0 .121 0 .18.001 8.591.065 18.879 4.481 21.993 16.683 1.023 4.014 5.105 6.436 9.122 5.413 4.013-1.024 6.437-5.108 5.413-9.122-4.302-16.858-18.595-27.838-36.413-27.973-17.8-.15-32.805 11.062-37.364 27.864-1.084 3.998 1.276 8.117 5.274 9.202.657.177 1.317.263 1.968.263z"/><path d="m499.492 80.685c-14.232-14.73-38.028-14.181-55.85 1.119-17.812-15.308-41.611-15.86-55.825-1.117-16.624 17.222-16.694 45.189-.223 62.51l-24.359-.029c-3.376-7.206-7.326-14.011-11.856-20.364-19.153-26.857-47.322-44.134-79.318-48.649-18.482-2.609-37.643-.682-55.413 5.574-3.907 1.375-5.959 5.658-4.583 9.565 1.375 3.906 5.657 5.959 9.565 4.583 15.509-5.46 32.223-7.145 48.335-4.87 33.142 4.677 64.593 25.447 81.007 62.799.193 1.254.693 2.403 1.426 3.371 8.937 22.093 12.748 49.698 8.875 82.912-1.181 10.156-2.908 19.861-5.121 29.124-28.712-2.559-56.362 3.177-80.332 16.758-3.604 2.042-4.87 6.619-2.828 10.223 1.38 2.436 3.919 3.804 6.532 3.804 1.252 0 2.522-.314 3.69-.976 20.861-11.819 44.003-16.864 68.894-15.085-24.279 78.243-84.646 121.845-139.782 137.559 2.206-38.723 17.613-75.106 43.06-101.01 2.903-2.955 2.861-7.703-.094-10.606-2.956-2.903-7.704-2.861-10.606.094-28.98 29.5-46.115 71.21-47.537 115.217-67.499 13.744-131.348-8.782-168.634-60.242-6.015-8.29-6.716-15.165-4.822-18.043.293-.446 1.186-1.802 4.25-1.114 18.84 4.235 34.86 6.061 48.102 6.061 28.012-.001 43.576-8.175 47-19.005 2.223-7.03-1.379-14.067-8.761-17.114-.519-.214-1.06-.37-1.613-.463-70.114-11.832-91.595-58.019-96.48-98.137 21.157 20.983 53.037 35.321 95.151 42.732.44.077.877.115 1.309.115 3.572 0 6.737-2.562 7.378-6.202.718-4.08-2.007-7.968-6.087-8.687-48.252-8.49-81.499-26.292-98.886-52.916.758-27.631 7.866-51.778 14.572-65.409.23-.468.411-.959.54-1.465.649-2.557 3.329-4.965 5.973-5.368 2.555-.391 4.915 1.143 7.013 4.556.032.053.065.105.099.157 5.948 9.159 12.127 17.094 18.812 23.991.376.493.817.935 1.305 1.323 20.516 20.55 45.897 31.561 84.061 37.802 2.047.335 4.144-.194 5.789-1.461s2.69-3.159 2.888-5.226c2.873-29.995 17.271-55.658 40.543-72.261 3.372-2.406 4.155-7.089 1.75-10.461-2.405-3.371-7.088-4.154-10.461-1.75-12.161 8.677-22.215 19.474-29.889 31.88-17.168-8.838-30.356-21.507-43.196-41.32-.139-.215-.289-.422-.449-.621-8-9.949-16.958-10.17-21.587-9.419-8.626 1.402-15.409 8.032-17.809 14.005-4.866 10.009-8.937 22.587-11.735 35.957-2.5-3.288-4.956-6.787-7.393-10.536-5.319-8.596-13.338-12.767-22-11.445-8.328 1.27-15.621 7.658-18.023 15.679-7.463 15.47-15.273 42.473-15.825 72.967-.022.302-.032.605-.017.91-.062 4.643.042 9.362.345 14.134 2.451 38.427 19.709 104.87 107.338 120.833-4.682 4.177-25.184 13.057-76.469 1.53-8.133-1.824-15.822 1.051-20.068 7.504-4.656 7.077-5.732 20.013 5.209 35.093 21.712 29.967 52.178 51.525 88.104 62.345 17.543 5.284 35.97 7.928 54.724 7.928 15.477 0 31.176-1.81 46.784-5.416.198-.039.391-.089.583-.143 1.82-.426 3.639-.86 5.456-1.335 41.49-10.843 78.577-33.438 107.25-65.343 23.159-25.768 39.93-56.984 49.48-91.688.183-.467.32-.958.408-1.47 2.847-10.604 5.02-21.531 6.499-32.723l44.216-68.66 14.94 14.823c.181.18.372.351.57.511l.233.188c2.176 1.759 4.426 3.578 7.78 3.686.081.002.161.004.242.004s.161-.001.242-.004c3.31-.106 5.533-1.877 7.683-3.589l.313-.249c.215-.171.421-.354.616-.548l46.885-46.518c.041-.04.08-.08.119-.121 16.664-17.296 16.664-45.442-.007-62.748zm-410.869 14.756c.111-.227.21-.458.298-.695.536-1.447 3.102-4.293 6.307-4.814.915-.148 3.657-.595 7.268 3.742 14.275 21.938 29.101 36.09 48.528 46.087-4.162 9.317-7.136 19.324-8.82 29.855-29.871-5.651-49.78-14.415-66.247-30.186 2.378-16.425 6.931-32.289 12.666-43.989zm289.108 117.55c-.054-19.761-2.912-38.168-8.496-54.816l33.472.04 6.284 6.234zm111.021-80.021-45.097 44.743-45.1-44.747c-11.102-11.561-11.084-30.323.057-41.865 9.961-10.331 25.971-6.311 35.99 2.729.717.645 1.289 1.19 1.753 1.633 1.707 1.627 3.817 3.639 7.227 3.639h.117c3.455 0 5.6-2.059 7.334-3.724.452-.434 1-.96 1.657-1.558 10.007-9.028 26.03-13.047 36.006-2.721 11.118 11.542 11.137 30.307.056 41.871z"/></g></svg>