<svg height="472pt" viewBox="0 -10 472 472" width="472pt" xmlns="http://www.w3.org/2000/svg"><path d="m466 .00390625h-135.140625c-35.027344-.09765625-64.949219 25.24999975-70.613281 59.81640575l-6.734375 40.402344c-6.382813 2.976563-12.289063 6.875-17.535157 11.574219-5.191406-4.808594-11.101562-8.777344-17.519531-11.761719l-6.699219-40.214844c-5.667968-34.570312-35.585937-59.914062-70.617187-59.820312h-135.140625c-3.3125 0-6 2.6875-6 6 .0273438 23.425781 19.011719 42.414062 42.4375 42.441406h8.449219c3.007812 20.890625 20.898437 36.410156 42.007812 36.4375h23.542969c1.765625 12.300782 8.824219 23.214844 19.316406 29.871094-8.113281 8.195312-14.144531 18.210938-17.597656 29.214844-.875 2.789062-1.578125 5.628906-2.113281 8.5-.148438.800781-.285157 1.605468-.40625 2.414062-3.496094 22.875 4.042969 46.054688 20.328125 62.5l95.722656 95.023438c2.339844 2.320312 6.117188 2.320312 8.457031 0l95.734375-95.042969c13.644532-13.769531 21.304688-32.367187 21.320313-51.753906-.003907-3.605469-.289063-7.203125-.855469-10.765625-.351562-2.214844-.816406-4.457032-1.382812-6.664063-3.210938-12.589843-9.703126-24.097656-18.820313-33.355469 10.554687-6.644531 17.660156-17.59375 19.425781-29.941406h23.539063c21.109375-.027344 39-15.546875 42.007812-36.4375h8.449219c23.425781-.027344 42.410156-19.011718 42.4375-42.4375 0-3.316406-2.6875-5.99999975-6-5.99999975zm-302.09375 72.87499975h-71.011719c-14.492187-.019531-26.96875-10.234375-29.84375-24.4375h50.398438c3.316406 0 6-2.6875 6-6 0-3.316406-2.683594-6-6-6h-71.011719c-14.492188-.019531-26.96875-10.234375-29.84375-24.4375h128.546875c29.15625-.082031 54.0625 21.015625 58.777344 49.792969l5.609375 33.644531c-5.828125-1.464844-11.816406-2.207031-17.828125-2.210937-15.089844-.136719-29.835938 4.488281-42.148438 13.214843-8.738281-4.101562-15.019531-12.101562-16.929687-21.566406h35.285156c3.3125 0 6-2.683594 6-6 0-3.3125-2.6875-6-6-6zm180.585938 83.839844c.46875 2.9375.703124 5.910156.707031 8.886719-.007813 16.199219-6.398438 31.742187-17.792969 43.257812l-91.492188 90.828125-91.480468-90.8125c-13.585938-13.742187-19.867188-33.101562-16.933594-52.199218.097656-.675782.214844-1.351563.339844-2.019532.445312-2.402344 1.035156-4.777344 1.765625-7.109375 7.96875-25.335937 31.539062-42.503906 58.097656-42.320312 16.332031 0 31.808594 6.449219 42.460937 17.691406.035157.039063.074219.078125.113282.117187l1.398437 1.398438c2.34375 2.34375 6.140625 2.34375 8.484375 0l1.402344-1.398438c5.53125-5.542968 12.097656-9.945312 19.328125-12.957031.128906-.046875.25-.105469.375-.160156 7.371094-3 15.257813-4.535156 23.214844-4.515625 16.085937-.089844 31.542969 6.257812 42.921875 17.632812 7.734375 7.78125 13.238281 17.492188 15.941406 28.125.46875 1.839844.855469 3.710938 1.148438 5.554688zm85.070312-120.277344h-71.015625c-3.3125 0-6 2.683594-6 6 0 3.3125 2.6875 6 6 6h50.398437c-2.875 14.203125-15.351562 24.417969-29.839843 24.4375h-71.011719c-3.3125 0-6 2.6875-6 6s2.6875 6 6 6h35.285156c-1.914062 9.527344-8.257812 17.566406-17.078125 21.640625-12.25-8.589843-26.863281-13.171875-41.824219-13.117187-6.078124 0-12.132812.75-18.03125 2.230468l5.640626-33.835937c4.71875-28.777344 29.621093-49.875 58.78125-49.792969h128.539062c-2.875 14.203125-15.351562 24.417969-29.84375 24.4375zm0 0"/><path d="m231.894531 411.460938c3.3125 0 6-2.6875 6-6v-48.992188c0-3.3125-2.6875-6-6-6-3.316406 0-6 2.6875-6 6v48.992188c0 3.3125 2.683594 6 6 6zm0 0"/><path d="m232.5 421.585938c-3.3125 0-6 2.683593-6 6v18.804687c0 3.3125 2.6875 6 6 6s6-2.6875 6-6v-18.804687c0-3.316407-2.6875-6-6-6zm0 0"/><path d="m180.714844 341.460938c3.3125 0 6-2.6875 6-6v-11.492188c0-3.3125-2.6875-6-6-6s-6 2.6875-6 6v11.492188c0 3.3125 2.6875 6 6 6zm0 0"/><path d="m181.320312 351.585938c-3.3125 0-6 2.683593-6 6v57.609374c0 3.316407 2.6875 6 6 6s6-2.683593 6-6v-57.609374c0-3.316407-2.6875-6-6-6zm0 0"/><path d="m129.535156 351.460938c3.316406 0 6-2.6875 6-6v-61.492188c0-3.3125-2.683594-6-6-6-3.3125 0-6 2.6875-6 6v61.492188c0 3.3125 2.6875 6 6 6zm0 0"/><path d="m130.144531 361.585938c-3.3125 0-6 2.683593-6 6v17.609374c0 3.316407 2.6875 6 6 6s6-2.683593 6-6v-17.609374c0-3.316407-2.6875-6-6-6zm0 0"/><path d="m283.070312 341.460938c3.3125 0 6-2.6875 6-6v-11.492188c0-3.3125-2.6875-6-6-6s-6 2.6875-6 6v11.492188c0 3.3125 2.6875 6 6 6zm0 0"/><path d="m283.675781 351.585938c-3.3125 0-6 2.683593-6 6v57.609374c0 3.316407 2.6875 6 6 6 3.316407 0 6-2.683593 6-6v-57.609374c0-3.316407-2.683593-6-6-6zm0 0"/><path d="m334.246094 341.460938c3.316406 0 6-2.6875 6-6v-51.492188c0-3.3125-2.683594-6-6-6-3.3125 0-6 2.6875-6 6v51.492188c0 3.3125 2.6875 6 6 6zm0 0"/><path d="m334.855469 351.585938c-3.316407 0-6 2.683593-6 6v27.609374c0 3.316407 2.683593 6 6 6 3.3125 0 6-2.683593 6-6v-27.609374c0-3.316407-2.6875-6-6-6zm0 0"/></svg>