<?xml version="1.0" encoding="iso-8859-1"?>
<!-- Generator: Adobe Illustrator 19.0.0, SVG Export Plug-In . SVG Version: 6.00 Build 0)  -->
<svg version="1.1" id="Capa_1" xmlns="http://www.w3.org/2000/svg" xmlns:xlink="http://www.w3.org/1999/xlink" x="0px" y="0px"
	 viewBox="0 0 512 512" style="enable-background:new 0 0 512 512;" xml:space="preserve">
<g>
	<path style="fill:#EFECF1;" d="M288.063,260.046c0,0-8.016-56.11,24.047-64.125s192.376,0,192.376,0s0,40.078-40.078,48.094
		s-168.329,8.016-168.329,40.078S288.063,260.046,288.063,260.046z"/>
	<path style="fill:#EFECF1;" d="M304.094,244.015c32.063-8.016,169.22-1.881,169.22-1.881s0,40.078-40.078,48.094
		s-145.173,28.173-145.173,28.173S272.031,252.031,304.094,244.015z"/>
	<path style="fill:#EFECF1;" d="M312.11,292.109c32.063-8.016,129.141-1.881,129.141-1.881s0,40.078-40.078,48.094
		s-81.047,1.881-81.047,1.881S280.047,300.124,312.11,292.109z"/>
</g>
<g>
	<path style="fill:#E0DAE3;" d="M304.094,244.015c-8.869,2.217-14.054,8.904-16.92,17.412c-0.012,8.696,0.889,15.014,0.889,15.014
		s8.016,33.943,8.016,1.881s128.25-16.031,168.329-24.047c1.956-0.391,3.813-16.892,5.583-17.428
		c3.323-9.259,3.323,5.287,3.323,5.287S336.157,235.999,304.094,244.015z"/>
	<path style="fill:#E0DAE3;" d="M312.11,292.109c-20.542,5.135-9.17,5.79,0,18.276c16.031,0,104.204,0,127.142-7.471
		c1.996-7.258,1.999-12.686,1.999-12.686S344.172,284.093,312.11,292.109z"/>
</g>
<g>
	<path style="fill:#EFECF1;" d="M223.937,260.046c0,0,8.016-56.11-24.047-64.125s-192.376,0-192.376,0s0,40.078,40.078,48.094
		s168.329,8.016,168.329,40.078S223.937,260.046,223.937,260.046z"/>
	<path style="fill:#EFECF1;" d="M207.906,244.015c-32.063-8.016-169.22-1.881-169.22-1.881s0,40.078,40.078,48.094
		s145.173,28.173,145.173,28.173S239.969,252.031,207.906,244.015z"/>
	<path style="fill:#EFECF1;" d="M199.89,292.109c-32.063-8.016-129.141-1.881-129.141-1.881s0,40.078,40.078,48.094
		s81.047,1.881,81.047,1.881S231.953,300.124,199.89,292.109z"/>
</g>
<g>
	<path style="fill:#E0DAE3;" d="M207.906,244.015c8.869,2.217,14.054,8.904,16.92,17.412c0.012,8.696-0.889,15.014-0.889,15.014
		s-8.016,33.943-8.016,1.881s-128.25-16.031-168.329-24.047c-1.956-0.391-3.813-16.892-5.583-17.428
		c-3.322-9.259-3.323,5.287-3.323,5.287S175.843,235.999,207.906,244.015z"/>
	<path style="fill:#E0DAE3;" d="M199.89,292.109c20.542,5.135,9.17,5.79,0,18.276c-16.031,0-104.204,0-127.142-7.471
		c-1.996-7.258-1.999-12.686-1.999-12.686S167.828,284.093,199.89,292.109z"/>
</g>
<path style="fill:#FF97A4;" d="M256,265.741c-72.141-80.157-136.266,0-104.204,64.125S256,418.039,256,418.039
	s72.141-24.047,104.204-88.172S328.141,185.585,256,265.741z"/>
<path style="fill:#FF7D8D;" d="M184.323,329.867c-19.45-38.9-3.502-83.695,28.158-95.029
	c-51.288-16.333-86.022,44.353-60.685,95.029C183.859,393.992,256,418.039,256,418.039s6.414-2.139,16.263-6.837
	C249.073,400.137,206.827,374.874,184.323,329.867z"/>
<path d="M196.53,155.674c16.006,6.403,37.127,9.928,59.47,9.928s43.464-3.526,59.47-9.928c18.186-7.274,28.201-17.804,28.201-29.649
	s-10.016-22.375-28.201-29.649c-16.006-6.403-37.127-9.928-59.47-9.928s-43.464,3.526-59.47,9.928
	c-18.186,7.274-28.201,17.804-28.201,29.649S178.344,148.4,196.53,155.674z M256,101.477c44.344,0,72.642,14.539,72.642,24.548
	S300.344,150.573,256,150.573s-72.642-14.539-72.642-24.548S211.656,101.477,256,101.477z"/>
<path d="M512,195.922c0-4.005-3.14-7.305-7.139-7.506c-6.593-0.33-161.806-7.978-194.574,0.215
	c-12.38,3.095-27.633,13.766-30.252,46.92c-8.102,4.844-16.13,11.259-24.035,19.241c-7.904-7.982-15.932-14.396-24.035-19.241
	c-2.62-33.155-17.872-43.826-30.252-46.92c-32.769-8.192-187.982-0.544-194.574-0.215C3.14,188.617,0,191.917,0,195.922
	c0,1.5,0.372,35.866,31.405,50.641c1.384,13.901,9.287,36.088,31.979,46.571c0.354,4.213,1.541,12.463,5.533,21.246
	c5.297,11.655,16.613,26.548,40.436,31.312c13.768,2.753,29.047,4.189,45.412,4.267c0.012,0,0.022,0,0.034,0
	c35.729,53.644,96.032,74.278,98.823,75.209c1.535,0.511,3.218,0.511,4.753,0c0.91-0.304,22.574-7.626,47.739-24.783
	c3.43-2.338,4.314-7.013,1.977-10.441c-2.339-3.43-7.014-4.314-10.442-1.976c-18.702,12.75-35.576,19.757-41.644,22.07
	c-12.443-4.773-70.447-29.447-97.489-83.531c-7.299-14.6-9.492-31.1-6.171-46.462c3.081-14.255,10.786-26.476,21.138-33.531
	c21.385-14.575,50.143-5.507,76.93,24.255c2.94,3.267,8.231,3.267,11.17,0c26.787-29.763,55.546-38.831,76.93-24.255
	c10.352,7.056,18.056,19.277,21.138,33.531c3.319,15.362,1.128,31.862-6.171,46.462c-6.952,13.902-16.507,26.983-28.401,38.877
	c-2.935,2.935-2.935,7.693,0,10.627c2.936,2.935,7.693,2.935,10.628,0c8.183-8.182,15.364-16.899,21.478-26.051
	c0.003,0,0.006,0,0.01,0c0.013,0,0.024,0,0.037,0c16.365-0.078,31.644-1.514,45.412-4.267c23.823-4.764,35.139-19.657,40.436-31.312
	c3.992-8.783,5.179-17.033,5.533-21.246c22.692-10.483,30.595-32.67,31.979-46.571C511.628,231.787,512,197.421,512,195.922z
	 M165.019,234.093c-29.072,19.814-37.832,63.358-19.944,99.134c0.251,0.504,0.513,0.998,0.77,1.497
	c-11.997-0.459-23.256-1.712-33.544-3.77c-24.179-4.835-31.183-23.331-33.211-33.669c7.875-0.415,20.92-1.025,35.682-1.413
	c4.149-0.109,7.424-3.56,7.315-7.709c-0.108-4.149-3.567-7.421-7.708-7.315c-16.282,0.427-30.5,1.123-38.139,1.539
	c-0.64-0.488-1.365-0.885-2.171-1.154c-19.16-6.395-25.148-22.481-27.018-31.919c8.608-0.335,23.378-0.862,40.564-1.274
	c4.149-0.1,7.432-3.545,7.331-7.693c-0.1-4.15-3.564-7.444-7.694-7.332c-21.661,0.521-39.517,1.222-46.137,1.497
	c-0.334-0.202-0.68-0.389-1.053-0.542c-16.966-6.96-22.435-21.97-24.196-30.927c57.127-2.678,158.83-5.672,182.201,0.17
	c10.83,2.707,15.702,13.665,17.792,24.824c-2.054-0.688-4.111-1.282-6.17-1.766C193.555,222.468,178.108,225.173,165.019,234.093z
	 M471.937,233.968c-0.373,0.152-0.719,0.34-1.053,0.542c-6.62-0.275-24.475-0.976-46.137-1.497
	c-4.143-0.082-7.594,3.183-7.694,7.332c-0.1,4.149,3.183,7.594,7.331,7.693c17.162,0.413,31.92,0.939,40.534,1.273
	c-1.906,9.437-7.934,25.561-26.988,31.92c-0.806,0.269-1.531,0.666-2.17,1.154c-7.64-0.415-21.858-1.111-38.139-1.539
	c-4.105-0.105-7.601,3.166-7.708,7.315c-0.109,4.149,3.166,7.6,7.315,7.709c14.76,0.387,27.803,0.998,35.679,1.412
	c-2.03,10.352-9.038,28.835-33.209,33.67c-10.288,2.058-21.545,3.311-33.543,3.77c0.257-0.499,0.518-0.996,0.768-1.497
	c17.888-35.776,9.127-79.32-19.944-99.134c-13.089-8.919-28.535-11.627-44.67-7.823c-2.059,0.485-4.115,1.078-6.17,1.766
	c2.091-11.161,6.963-22.118,17.792-24.824c23.37-5.842,125.07-2.849,182.199-0.17C494.366,212.009,488.895,227.012,471.937,233.968z
	"/>
<g>
</g>
<g>
</g>
<g>
</g>
<g>
</g>
<g>
</g>
<g>
</g>
<g>
</g>
<g>
</g>
<g>
</g>
<g>
</g>
<g>
</g>
<g>
</g>
<g>
</g>
<g>
</g>
<g>
</g>
</svg>
